<svg xmlns="http://www.w3.org/2000/svg" width="120" height="74" viewBox="0 0 120 74"><defs><linearGradient id="s" x1="0" y1="0" x2="0" y2="1"><stop offset="0" stop-color="#ff8cc6"/><stop offset=".55" stop-color="#ff4fa3"/><stop offset="1" stop-color="#d81b7a"/></linearGradient></defs><g stroke="#b0125f" stroke-width="1.5" stroke-linejoin="round" fill="url(#s)"><path d="M56 40 L42 70 L50 66 L56 73 L60 42 Z"/><path d="M64 40 L78 70 L70 66 L64 73 L60 42 Z"/><path d="M60 34 C42 8 7 6 9 30 C11 52 42 50 60 38 Z"/><path d="M60 34 C78 8 113 6 111 30 C109 52 78 50 60 38 Z"/><rect x="51" y="25" width="18" height="21" rx="7"/></g><g fill="none" stroke="#ffd1e8" stroke-width="2" stroke-linecap="round" opacity=".85"><path d="M22 20 C30 14 42 18 50 28"/><path d="M98 20 C90 14 78 18 70 28"/><path d="M55 30 C57 28 61 28 63 30"/></g><g fill="none" stroke="#b0125f" stroke-width="1" opacity=".45"><path d="M18 34 C30 40 44 38 56 36"/><path d="M102 34 C90 40 76 38 64 36"/></g></svg>
