<svg xmlns="http://www.w3.org/2000/svg" width="90" height="90" viewBox="0 0 90 90"><g opacity=".85"><path d="M12 84 Q34 60 58 26" stroke="#8aa37a" stroke-width="1.6" fill="none"/><ellipse cx="28" cy="66" rx="9" ry="3.6" fill="#9db58c" transform="rotate(-50 28 66)"/><ellipse cx="38" cy="58" rx="8" ry="3.2" fill="#a9bf97" transform="rotate(10 38 58)"/><ellipse cx="45" cy="44" rx="8" ry="3.2" fill="#9db58c" transform="rotate(-60 45 44)"/><ellipse cx="60.0" cy="18.0" rx="6.0" ry="3.7" fill="#d49a9a" transform="rotate(-90 60.0 18.0)"/><ellipse cx="65.7" cy="22.1" rx="6.0" ry="3.7" fill="#d49a9a" transform="rotate(-18 65.7 22.1)"/><ellipse cx="63.5" cy="28.9" rx="6.0" ry="3.7" fill="#d49a9a" transform="rotate(54 63.5 28.9)"/><ellipse cx="56.5" cy="28.9" rx="6.0" ry="3.7" fill="#d49a9a" transform="rotate(126 56.5 28.9)"/><ellipse cx="54.3" cy="22.1" rx="6.0" ry="3.7" fill="#d49a9a" transform="rotate(198 54.3 22.1)"/><circle cx="60" cy="24" r="3" fill="#d9a441"/><ellipse cx="36.0" cy="70.0" rx="4.0" ry="2.5" fill="#c7a4c9" transform="rotate(-90 36.0 70.0)"/><ellipse cx="39.8" cy="72.8" rx="4.0" ry="2.5" fill="#c7a4c9" transform="rotate(-18 39.8 72.8)"/><ellipse cx="38.4" cy="77.2" rx="4.0" ry="2.5" fill="#c7a4c9" transform="rotate(54 38.4 77.2)"/><ellipse cx="33.6" cy="77.2" rx="4.0" ry="2.5" fill="#c7a4c9" transform="rotate(126 33.6 77.2)"/><ellipse cx="32.2" cy="72.8" rx="4.0" ry="2.5" fill="#c7a4c9" transform="rotate(198 32.2 72.8)"/><circle cx="36" cy="74" r="2" fill="#d9a441"/></g></svg>