<svg xmlns="http://www.w3.org/2000/svg" width="400" height="300"><circle cx="95" cy="163" r="0.7" fill="#dfe7ff" opacity="0.75"/><circle cx="190" cy="174" r="1.0" fill="#dfe7ff" opacity="0.26"/><circle cx="335" cy="78" r="0.6" fill="#dfe7ff" opacity="0.36"/><circle cx="287" cy="162" r="1.0" fill="#dfe7ff" opacity="0.51"/><circle cx="256" cy="45" r="0.6" fill="#dfe7ff" opacity="0.73"/><circle cx="209" cy="222" r="0.5" fill="#dfe7ff" opacity="0.34"/><circle cx="383" cy="13" r="0.5" fill="#dfe7ff" opacity="0.70"/><circle cx="108" cy="178" r="0.8" fill="#dfe7ff" opacity="0.64"/><circle cx="368" cy="118" r="1.0" fill="#dfe7ff" opacity="0.49"/><circle cx="374" cy="264" r="0.5" fill="#dfe7ff" opacity="0.27"/><circle cx="198" cy="77" r="0.8" fill="#dfe7ff" opacity="0.68"/><circle cx="342" cy="126" r="0.8" fill="#dfe7ff" opacity="0.57"/><circle cx="214" cy="122" r="0.6" fill="#dfe7ff" opacity="0.75"/><circle cx="273" cy="279" r="0.7" fill="#dfe7ff" opacity="0.80"/><circle cx="269" cy="49" r="0.7" fill="#dfe7ff" opacity="0.78"/><circle cx="362" cy="171" r="0.6" fill="#dfe7ff" opacity="0.60"/><circle cx="395" cy="80" r="0.5" fill="#dfe7ff" opacity="0.28"/><circle cx="342" cy="297" r="0.5" fill="#dfe7ff" opacity="0.44"/><circle cx="27" cy="269" r="0.5" fill="#dfe7ff" opacity="0.41"/><circle cx="308" cy="262" r="0.5" fill="#dfe7ff" opacity="0.58"/><circle cx="305" cy="113" r="1.0" fill="#dfe7ff" opacity="0.43"/><circle cx="352" cy="294" r="1.0" fill="#dfe7ff" opacity="0.38"/><circle cx="14" cy="2" r="0.5" fill="#dfe7ff" opacity="0.58"/><circle cx="13" cy="59" r="0.8" fill="#dfe7ff" opacity="0.41"/><circle cx="105" cy="207" r="0.7" fill="#dfe7ff" opacity="0.42"/><circle cx="383" cy="269" r="0.8" fill="#dfe7ff" opacity="0.46"/><circle cx="348" cy="116" r="1.0" fill="#dfe7ff" opacity="0.62"/><circle cx="41" cy="292" r="1.0" fill="#dfe7ff" opacity="0.40"/><circle cx="254" cy="215" r="0.7" fill="#dfe7ff" opacity="0.49"/><circle cx="103" cy="91" r="0.7" fill="#dfe7ff" opacity="0.26"/><circle cx="166" cy="174" r="0.5" fill="#dfe7ff" opacity="0.46"/><circle cx="236" cy="40" r="0.7" fill="#dfe7ff" opacity="0.51"/><circle cx="272" cy="106" r="0.7" fill="#dfe7ff" opacity="0.66"/><circle cx="9" cy="18" r="0.5" fill="#dfe7ff" opacity="0.78"/><circle cx="100" cy="137" r="1.0" fill="#dfe7ff" opacity="0.58"/><circle cx="71" cy="56" r="0.7" fill="#dfe7ff" opacity="0.71"/><circle cx="106" cy="236" r="0.5" fill="#dfe7ff" opacity="0.67"/><circle cx="11" cy="171" r="0.6" fill="#dfe7ff" opacity="0.42"/><circle cx="89" cy="241" r="0.6" fill="#dfe7ff" opacity="0.43"/><circle cx="271" cy="195" r="0.5" fill="#dfe7ff" opacity="0.31"/><circle cx="129" cy="100" r="0.6" fill="#dfe7ff" opacity="0.49"/><circle cx="342" cy="51" r="0.7" fill="#dfe7ff" opacity="0.66"/><circle cx="87" cy="171" r="0.7" fill="#dfe7ff" opacity="0.37"/><circle cx="48" cy="159" r="0.6" fill="#dfe7ff" opacity="0.42"/><circle cx="334" cy="172" r="0.7" fill="#dfe7ff" opacity="0.44"/><circle cx="331" cy="26" r="1.0" fill="#dfe7ff" opacity="0.44"/><circle cx="52" cy="88" r="0.7" fill="#dfe7ff" opacity="0.51"/><circle cx="254" cy="87" r="1.0" fill="#dfe7ff" opacity="0.48"/><circle cx="368" cy="47" r="0.5" fill="#dfe7ff" opacity="0.51"/><circle cx="333" cy="187" r="1.0" fill="#dfe7ff" opacity="0.49"/><circle cx="380" cy="278" r="0.6" fill="#dfe7ff" opacity="0.27"/><circle cx="183" cy="226" r="1.0" fill="#dfe7ff" opacity="0.78"/><circle cx="218" cy="267" r="0.5" fill="#dfe7ff" opacity="0.72"/><circle cx="388" cy="36" r="0.6" fill="#dfe7ff" opacity="0.27"/><circle cx="361" cy="208" r="0.6" fill="#dfe7ff" opacity="0.74"/><circle cx="360" cy="173" r="0.5" fill="#dfe7ff" opacity="0.51"/><circle cx="48" cy="151" r="0.6" fill="#dfe7ff" opacity="0.61"/><circle cx="210" cy="124" r="1.0" fill="#dfe7ff" opacity="0.31"/><circle cx="50" cy="292" r="1.0" fill="#dfe7ff" opacity="0.51"/><circle cx="313" cy="106" r="0.6" fill="#dfe7ff" opacity="0.32"/><circle cx="355" cy="36" r="0.6" fill="#dfe7ff" opacity="0.69"/><circle cx="369" cy="242" r="0.5" fill="#dfe7ff" opacity="0.52"/><circle cx="228" cy="120" r="0.7" fill="#dfe7ff" opacity="0.39"/><circle cx="247" cy="156" r="0.5" fill="#dfe7ff" opacity="0.51"/><circle cx="311" cy="1" r="0.5" fill="#dfe7ff" opacity="0.68"/><circle cx="18" cy="15" r="0.8" fill="#dfe7ff" opacity="0.79"/><circle cx="342" cy="26" r="1.0" fill="#dfe7ff" opacity="0.52"/><circle cx="63" cy="22" r="0.8" fill="#dfe7ff" opacity="0.61"/><circle cx="235" cy="108" r="0.6" fill="#dfe7ff" opacity="0.79"/><circle cx="171" cy="38" r="0.5" fill="#dfe7ff" opacity="0.64"/><circle cx="154" cy="32" r="3.5" fill="#dfe7ff" opacity=".12"/><circle cx="154" cy="32" r="1.3" fill="#ffffff"/><circle cx="78" cy="115" r="3.5" fill="#dfe7ff" opacity=".12"/><circle cx="78" cy="115" r="1.3" fill="#ffffff"/><circle cx="240" cy="229" r="3.5" fill="#dfe7ff" opacity=".12"/><circle cx="240" cy="229" r="1.3" fill="#ffffff"/><circle cx="155" cy="234" r="3.5" fill="#dfe7ff" opacity=".12"/><circle cx="155" cy="234" r="1.3" fill="#ffffff"/><circle cx="247" cy="131" r="3.5" fill="#dfe7ff" opacity=".12"/><circle cx="247" cy="131" r="1.3" fill="#ffffff"/></svg>