<?xml version="1.0" encoding="UTF-8"?>
<svg id="Ebene_1" xmlns="http://www.w3.org/2000/svg" version="1.1" viewBox="0 0 3047.67 769.18">
  <!-- Generator: Adobe Illustrator 29.5.1, SVG Export Plug-In . SVG Version: 2.1.0 Build 141)  -->
  <defs>
    <style>
      .st0 {
        fill: none;
        stroke: #fff;
        stroke-miterlimit: 10;
        stroke-width: 49px;
      }

      .st1 {
        fill: #fff;
      }
    </style>
  </defs>
  <g>
    <g>
      <path class="st1" d="M1844.11,213.5c0-103.51,39.78-163.18,124.31-163.18,65.09,0,98.99,35.71,111.65,90.86l-63.29,15.37c-6.78-29.83-18.08-51.53-49.72-51.53-36.61,0-50.63,30.74-50.63,80.91v55.15c0,50.18,14.01,80.91,50.63,80.91,31.64,0,42.94-21.7,49.72-51.53l63.29,15.37c-12.66,55.15-46.56,90.86-111.65,90.86-84.53,0-124.31-59.67-124.31-163.19Z"/>
      <path class="st1" d="M2126.16,36.76h66.9v143.75h2.71c10.4-26.22,31.19-47.92,68.71-47.92,44.75,0,75.94,31.19,75.94,87.69v150.98h-66.9v-141.94c0-29.38-13.11-45.2-39.33-45.2-20.79,0-41.14,11.3-41.14,33.9v153.24h-66.9V36.76Z"/>
      <path class="st1" d="M2588.12,371.26c-27.57,0-45.65-14.92-48.37-41.14h-2.26c-8.14,30.29-35.26,46.56-70.97,46.56-45.21,0-75.04-25.77-75.04-69.61,0-48.82,36.61-71.87,104.87-71.87h37.52v-11.75c0-27.57-11.75-42.04-42.49-42.04-28.03,0-44.3,12.2-56.96,29.38l-36.61-32.55c15.37-26.22,49.27-45.65,101.26-45.65,63.74,0,101.71,29.38,101.71,88.15v102.16h25.77v48.37h-38.42ZM2533.88,299.39v-28.03h-35.71c-26.67,0-41.14,9.49-41.14,27.57v9.04c0,16.28,13.56,24.86,34.81,24.86,23.51,0,42.04-11.75,42.04-33.45Z"/>
      <path class="st1" d="M2792.88,371.26c-48.37,0-71.42-28.03-71.42-67.35v-113.91h-63.28v-51.98h41.13c19.89,0,27.57-6.78,27.57-27.57v-54.7h61.48v82.27h90.86v51.98h-90.86v129.28h90.86v51.98h-86.34Z"/>
    </g>
    <g>
      <path class="st1" d="M1333.27,682.24h-4.07c-10.4,26.22-31.64,50.18-70.52,50.18-61.93,0-95.38-60.12-95.38-160.47,0-107.13,38.42-165.9,120.24-165.9,65.09,0,97.64,36.61,110.3,90.86l-63.29,15.37c-6.78-26.67-17.18-51.53-48.37-51.53-34.36,0-47.01,30.29-47.01,80.91v51.53c0,51.08,13.11,84.53,52.44,84.53,30.29,0,45.66-20.34,45.66-48.37v-23.05h-53.79v-47.91h114.36v168.61h-60.57v-44.75Z"/>
      <path class="st1" d="M1638.83,726.99c-27.57,0-45.65-14.92-48.37-41.14h-2.26c-8.14,30.29-35.26,46.56-70.97,46.56-45.21,0-75.04-25.77-75.04-69.61,0-48.82,36.61-71.87,104.87-71.87h37.52v-11.75c0-27.57-11.75-42.04-42.49-42.04-28.03,0-44.3,12.2-56.96,29.38l-36.61-32.55c15.37-26.22,49.27-45.65,101.26-45.65,63.74,0,101.71,29.38,101.71,88.15v102.16h25.77v48.37h-38.42ZM1584.59,655.12v-28.03h-35.71c-26.67,0-41.14,9.49-41.14,27.57v9.04c0,16.28,13.56,24.86,34.81,24.86,23.51,0,42.04-11.75,42.04-33.45Z"/>
      <path class="st1" d="M1703.46,726.99v-233.25h53.79v34.35h3.17c7.23-21.69,19.44-39.78,44.3-39.78,22.15,0,36.61,14.01,41.59,39.78h2.71c7.68-21.24,20.79-39.78,49.72-39.78,32.55,0,48.82,23.96,48.82,71.87v166.8h-53.79v-160.02c0-21.7-8.14-29.38-20.34-29.38-11.3,0-20.79,7.23-20.79,23.05v166.35h-54.25v-160.02c0-21.7-7.68-29.38-19.44-29.38s-21.7,7.23-21.7,23.05v166.35h-53.79Z"/>
      <path class="st1" d="M1983.7,611.27c0-76.39,43.4-122.95,113.46-122.95s112.55,45.65,112.55,118.43v19.89h-159.57v4.07c0,29.83,19.44,50.18,55.15,50.18,27.57,0,47.01-11.75,61.48-28.93l36.16,39.33c-18.08,22.15-49.72,41.14-99.9,41.14-78.2,0-119.34-46.56-119.34-121.15ZM2050.15,585.5v3.62h94.02v-3.62c0-30.29-17.63-49.27-46.56-49.27s-47.46,19.44-47.46,49.27Z"/>
      <path class="st1" d="M2273.89,726.99v-315.52h68.26v259.92h135.61v55.6h-203.87Z"/>
      <path class="st1" d="M2626.92,537.14c-28.03,0-44.3,12.2-56.96,29.38l-36.61-32.55c15.37-26.22,49.27-45.65,101.26-45.65,63.74,0,101.71,29.38,101.71,88.15v102.16h25.77v48.37h-38.42c-27.57,0-45.65-14.92-48.37-41.14h-2.26c-8.14,30.29-35.26,46.56-70.97,46.56-45.21,0-75.04-25.77-75.04-69.61,0-48.82,36.61-71.87,104.87-71.87h37.52v-11.75c0-27.57-11.75-42.04-42.49-42.04M2669.41,655.12v-28.03h-35.71c-26.67,0-41.14,9.49-41.14,27.57v9.04c0,16.28,13.56,24.86,34.81,24.86,23.51,0,42.04-11.75,42.04-33.45Z"/>
      <path class="st1" d="M2801.39,392.49h66.9v143.75h3.16c11.75-28.03,31.64-47.92,69.16-47.92,51.53,0,87.69,37.52,87.69,122.05s-36.16,122.05-87.69,122.05c-37.52,0-57.41-19.89-69.16-47.92h-3.16v42.49h-66.9v-334.5ZM2958.69,628.45v-36.16c0-32.55-17.18-51.98-47.01-51.98-23.51,0-43.4,11.3-43.4,35.71v68.71c0,24.41,19.89,35.71,43.4,35.71,29.83,0,47.01-19.44,47.01-51.99Z"/>
    </g>
  </g>
  <g>
    <path class="st0" d="M1077.73,148.29h0c-5.06-.21-9.51-3.51-11.05-8.34-21.41-66.96-68.83-92.12-151.25-104.03-5.3-.77-10.67-1.15-16.03-1.15H189.7C106.89,48.69,47.97,94.36,30,194.47l.39,359.62c.02,19.75,3.93,39.33,11.84,57.43,28.48,65.13,63.99,104.59,118.98,115.52l259.19,7.37h501.87c93.75-12.58,149.76-64.64,162.23-162.23v-144.12c0-26.87,7.65-53.18,22.05-75.86l.98-1.55c6.11-9.63,13.37-18.48,21.61-26.37l243.77-135.14c10.1-13.12,1.21-32.17-15.33-32.86l-251.91-10.38-25.83,2.35c-.7.06-1.41.08-2.11.05Z"/>
    <g>
      <path class="st1" d="M528.9,219.88c-25.25-4.94-76.35-7.28-132.31-5.94-55.96-1.34-107.06,1-132.31,5.94-102.22,20.01-179.1,265.31-95.18,325.22,70.93,50.63,97.78-17.86,149.43-38.64,25.92-10.42,50.05-14.7,72.73-14.92v.17c1.76-.08,3.55-.08,5.32-.11,1.78.03,3.57.03,5.32.11v-.17c22.68.22,46.81,4.49,72.73,14.92,51.65,20.77,78.5,89.27,149.43,38.64,83.93-59.91,7.05-305.21-95.18-325.22ZM372.21,371.82h-50.5v50.5h-40.54v-50.5h-50.5v-40.54h50.5v-50.5h40.54v50.5h50.5v40.54ZM442.89,366.84c-11.74,0-21.25-9.51-21.25-21.25s9.51-21.25,21.25-21.25,21.25,9.51,21.25,21.25-9.51,21.25-21.25,21.25ZM491.79,415.73c-11.74,0-21.25-9.51-21.25-21.25s9.51-21.25,21.25-21.25,21.25,9.51,21.25,21.25-9.51,21.25-21.25,21.25ZM491.79,317.95c-11.74,0-21.25-9.51-21.25-21.25s9.51-21.25,21.25-21.25,21.25,9.51,21.25,21.25-9.51,21.25-21.25,21.25ZM540.68,366.84c-11.74,0-21.25-9.51-21.25-21.25s9.51-21.25,21.25-21.25,21.25,9.51,21.25,21.25-9.51,21.25-21.25,21.25Z"/>
      <path class="st1" d="M892.72,333.12c-2.02-9.31-4.15-80.34-2.05-86.3.93-2.65,27.85-13.3,11.52-32.17-6.48-7.49-14.44-7.72-24.77-8.18-21.01-.95-89.97-1.25-108.15,1.86-13.13,2.25-14.17,15.65-10.66,26.73,3.16,9.98,15.31,7.95,16.99,15.05-3.97,27.47,3.06,55.59-2,83.06-8.55,46.35-160.98,202.71-37.94,219.04,34.77,4.61,158.19,4.47,193.14-.04,8.57-1.11,21.09-6.03,28.09-10.9,69.2-48.05-52.53-154.51-64.18-208.15ZM783.84,395.79c9.97-14.87,18.25-29.09,21.7-41.32,9.6-34.02-.73-75.32,5.45-110.64h44.31v91.27c0,12.82,11.87,34.3,26.84,57.78l-98.29,2.9Z"/>
    </g>
  </g>
</svg>