<?xml version="1.0" encoding="UTF-8"?>
<svg id="Ebene_1" xmlns="http://www.w3.org/2000/svg" version="1.1" viewBox="0 0 723.71 769.18">
  <!-- Generator: Adobe Illustrator 29.5.1, SVG Export Plug-In . SVG Version: 2.1.0 Build 141)  -->
  <defs>
    <style>
      .st0 {
        fill: #f0f;
      }

      .st1 {
        fill: #fff;
      }

      .st2 {
        fill: none;
        stroke: aqua;
        stroke-miterlimit: 10;
        stroke-width: 49px;
      }
    </style>
  </defs>
  <g>
    <path class="st1" d="M275.75,565.09c0-38.7,14.87-61.01,46.48-61.01,24.34,0,37.01,13.35,41.74,33.97l-23.66,5.75c-2.54-11.15-6.76-19.27-18.59-19.27-13.69,0-18.93,11.49-18.93,30.25v20.62c0,18.76,5.24,30.25,18.93,30.25,11.83,0,16.05-8.11,18.59-19.27l23.66,5.75c-4.73,20.62-17.41,33.97-41.74,33.97-31.6,0-46.48-22.31-46.48-61.01Z"/>
    <path class="st1" d="M381.2,499h25.01v53.74h1.01c3.89-9.8,11.66-17.92,25.69-17.92,16.73,0,28.39,11.66,28.39,32.79v56.45h-25.01v-53.07c0-10.99-4.9-16.9-14.7-16.9-7.77,0-15.38,4.23-15.38,12.68v57.29h-25.01v-125.06Z"/>
    <path class="st1" d="M553.92,624.07c-10.31,0-17.07-5.58-18.08-15.38h-.85c-3.04,11.32-13.18,17.41-26.53,17.41-16.9,0-28.06-9.63-28.06-26.03,0-18.25,13.69-26.87,39.21-26.87h14.03v-4.39c0-10.31-4.39-15.72-15.89-15.72-10.48,0-16.56,4.56-21.29,10.99l-13.69-12.17c5.75-9.8,18.42-17.07,37.86-17.07,23.83,0,38.03,10.99,38.03,32.96v38.2h9.63v18.08h-14.37ZM533.64,597.2v-10.48h-13.35c-9.97,0-15.38,3.55-15.38,10.31v3.38c0,6.08,5.07,9.3,13.01,9.3,8.79,0,15.72-4.39,15.72-12.51Z"/>
    <path class="st1" d="M630.48,624.07c-18.08,0-26.7-10.48-26.7-25.18v-42.59h-23.66v-19.44h15.38c7.44,0,10.31-2.54,10.31-10.31v-20.45h22.99v30.76h33.97v19.44h-33.97v48.34h33.97v19.44h-32.28Z"/>
  </g>
  <g>
    <path class="st1" d="M84.76,740.34h-1.52c-3.89,9.8-11.83,18.76-26.37,18.76-23.15,0-35.66-22.48-35.66-60,0-40.05,14.37-62.03,44.96-62.03,24.34,0,36.5,13.69,41.24,33.97l-23.66,5.75c-2.54-9.97-6.42-19.27-18.08-19.27-12.84,0-17.58,11.32-17.58,30.25v19.27c0,19.1,4.9,31.6,19.6,31.6,11.32,0,17.07-7.61,17.07-18.08v-8.62h-20.11v-17.91h42.76v63.04h-22.65v-16.73Z"/>
    <path class="st1" d="M199,757.07c-10.31,0-17.07-5.58-18.08-15.38h-.85c-3.04,11.32-13.18,17.41-26.53,17.41-16.9,0-28.06-9.63-28.06-26.03,0-18.25,13.69-26.87,39.21-26.87h14.03v-4.39c0-10.31-4.39-15.72-15.89-15.72-10.48,0-16.56,4.56-21.29,10.99l-13.69-12.17c5.75-9.8,18.42-17.07,37.86-17.07,23.83,0,38.03,10.99,38.03,32.96v38.2h9.63v18.08h-14.37ZM178.72,730.2v-10.48h-13.35c-9.97,0-15.38,3.55-15.38,10.31v3.38c0,6.08,5.07,9.3,13.01,9.3,8.79,0,15.72-4.39,15.72-12.51Z"/>
    <path class="st1" d="M223.16,757.07v-87.21h20.11v12.84h1.18c2.7-8.11,7.27-14.87,16.56-14.87,8.28,0,13.69,5.24,15.55,14.87h1.01c2.87-7.94,7.77-14.87,18.59-14.87,12.17,0,18.25,8.96,18.25,26.87v62.36h-20.11v-59.83c0-8.11-3.04-10.99-7.61-10.99-4.22,0-7.77,2.7-7.77,8.62v62.19h-20.28v-59.83c0-8.11-2.87-10.99-7.27-10.99s-8.11,2.7-8.11,8.62v62.19h-20.11Z"/>
    <path class="st1" d="M327.94,713.8c0-28.56,16.22-45.97,42.42-45.97s42.08,17.07,42.08,44.28v7.44h-59.66v1.52c0,11.15,7.27,18.76,20.62,18.76,10.31,0,17.58-4.39,22.98-10.82l13.52,14.7c-6.76,8.28-18.59,15.38-37.35,15.38-29.24,0-44.62-17.41-44.62-45.29ZM352.78,704.17v1.35h35.15v-1.35c0-11.32-6.59-18.42-17.41-18.42s-17.75,7.27-17.75,18.42Z"/>
    <path class="st1" d="M436.44,757.07v-117.97h25.52v97.18h50.7v20.79h-76.22Z"/>
    <path class="st1" d="M604.59,757.07c-10.31,0-17.07-5.58-18.08-15.38h-.85c-3.04,11.32-13.18,17.41-26.53,17.41-16.9,0-28.06-9.63-28.06-26.03,0-18.25,13.69-26.87,39.21-26.87h14.03v-4.39c0-10.31-4.39-15.72-15.89-15.72-10.48,0-16.56,4.56-21.29,10.99l-13.69-12.17c5.75-9.8,18.42-17.07,37.86-17.07,23.83,0,38.03,10.99,38.03,32.96v38.2h9.63v18.08h-14.37ZM584.31,730.2v-10.48h-13.35c-9.97,0-15.38,3.55-15.38,10.31v3.38c0,6.08,5.07,9.3,13.01,9.3,8.79,0,15.72-4.39,15.72-12.51Z"/>
    <path class="st1" d="M633.66,632h25.01v53.74h1.18c4.39-10.48,11.83-17.92,25.86-17.92,19.27,0,32.79,14.03,32.79,45.63s-13.52,45.63-32.79,45.63c-14.03,0-21.46-7.44-25.86-17.92h-1.18v15.89h-25.01v-125.06ZM692.47,720.23v-13.52c0-12.17-6.42-19.44-17.58-19.44-8.79,0-16.22,4.23-16.22,13.35v25.69c0,9.13,7.44,13.35,16.22,13.35,11.15,0,17.58-7.27,17.58-19.44Z"/>
  </g>
  <g>
    <path class="st0" d="M560.9,210.78c-1.24-5.72-2.54-49.32-1.26-52.98.57-1.63,17.09-8.16,7.07-19.75-3.98-4.6-8.86-4.74-15.2-5.02-12.9-.58-55.23-.77-66.39,1.14-8.06,1.38-8.7,9.61-6.54,16.41,1.94,6.13,9.4,4.88,10.43,9.24-2.44,16.86,1.88,34.12-1.23,50.99-5.25,28.45-98.81,124.43-23.29,134.45,21.34,2.83,97.1,2.75,118.56-.02,5.26-.68,12.94-3.7,17.25-6.69,42.48-29.49-32.25-94.84-39.4-127.77ZM494.07,249.25c6.12-9.13,11.2-17.85,13.32-25.37,5.89-20.88-.45-46.23,3.34-67.91h27.2v56.03c0,7.87,7.29,21.06,16.47,35.47l-60.34,1.78Z"/>
    <path class="st2" d="M30.47,349.24l-.24-221.17c11.02-61.43,47.18-89.45,97.99-97.99h440.18c66.76,8.7,104.41,43.76,108.88,108.88v220.87c-7.65,59.88-42.02,91.83-99.55,99.55h-307.95c-1.02,0-2.01.34-2.82.96l-122.64,119.42c-8.05,6.2-19.74.74-20.17-9.41l-3.46-108.09c-.14-3.38-2.66-6.19-6-6.71-36.01-5.56-58.81-30.08-76.95-71.58-4.79-10.95-7.25-22.78-7.27-34.73Z"/>
    <path class="st0" d="M337.58,141.27c-15.5-3.03-46.87-4.47-81.22-3.65-34.35-.82-65.72.61-81.22,3.65-62.75,12.28-109.94,162.86-58.42,199.63,43.54,31.08,60.02-10.97,91.73-23.72,15.91-6.4,30.73-9.02,44.65-9.16v.1c1.08-.05,2.18-.05,3.27-.07,1.09.02,2.19.02,3.27.07v-.1c13.92.14,28.74,2.76,44.65,9.16,31.71,12.75,48.19,54.8,91.73,23.72,51.52-36.77,4.32-187.35-58.42-199.63ZM241.4,234.53h-31v31h-24.88v-31h-31v-24.88h31v-31h24.88v31h31v24.88ZM284.78,231.48c-7.2,0-13.04-5.84-13.04-13.04s5.84-13.04,13.04-13.04,13.04,5.84,13.04,13.04-5.84,13.04-13.04,13.04ZM314.8,261.49c-7.2,0-13.04-5.84-13.04-13.04s5.84-13.04,13.04-13.04,13.04,5.84,13.04,13.04-5.84,13.04-13.04,13.04ZM314.8,201.46c-7.2,0-13.04-5.84-13.04-13.04s5.84-13.04,13.04-13.04,13.04,5.84,13.04,13.04-5.84,13.04-13.04,13.04ZM344.81,231.48c-7.2,0-13.04-5.84-13.04-13.04s5.84-13.04,13.04-13.04,13.04,5.84,13.04,13.04-5.84,13.04-13.04,13.04Z"/>
  </g>
</svg>