<svg xmlns="http://www.w3.org/2000/svg" width="72" height="32" viewBox="0 0 72 32"><defs><clipPath id="c"><ellipse cx="36" cy="16" rx="15" ry="11"/></clipPath></defs><g stroke="#c2477a" stroke-width="1.2" stroke-linejoin="round"><path d="M22 16 L4 5 L7 11 L2 16 L7 21 L4 27 Z" fill="#ffc75f"/><path d="M50 16 L68 5 L65 11 L70 16 L65 21 L68 27 Z" fill="#ffc75f"/><ellipse cx="36" cy="16" rx="15" ry="11" fill="#ff6f91"/></g><g clip-path="url(#c)" fill="#ffffff" opacity=".9"><path d="M24 4 l6 0 l-10 26 l-6 0 z"/><path d="M36 4 l6 0 l-10 26 l-6 0 z"/><path d="M48 4 l6 0 l-10 26 l-6 0 z"/></g><ellipse cx="31" cy="11" rx="5" ry="2.5" fill="#ffffff" opacity=".6"/><g stroke="#c2477a" stroke-width="1" fill="none" opacity=".6"><path d="M12 10 L16 16 L12 22"/><path d="M60 10 L56 16 L60 22"/></g></svg>
