<svg xmlns="http://www.w3.org/2000/svg" width="48" height="48" viewBox="0 0 48 48"><defs><radialGradient id="w" cx=".35" cy=".3"><stop offset="0" stop-color="#4a6bc4"/><stop offset=".6" stop-color="#23397a"/><stop offset="1" stop-color="#132253"/></radialGradient></defs><polygon points="46.2,24.0 42.0,29.3 41.3,35.1 38.5,40.8 31.8,41.1 26.9,44.4 20.8,46.0 16.2,41.1 10.5,39.6 5.3,36.0 6.0,29.3 3.4,24.0 2.7,17.7 8.2,13.8 10.5,8.4 14.8,3.8 21.3,5.4 26.9,3.6 33.2,3.8 36.3,9.8 41.3,12.9 45.3,17.7" fill="url(#w)"/><circle cx="24" cy="24" r="13" fill="none" stroke="#132253" stroke-width="1.6"/><circle cx="24" cy="21" r="3.6" fill="#0d1840"/><path d="M22 23 L26 23 L27.5 31 L20.5 31 Z" fill="#0d1840"/><path d="M14 14 Q18 10 24 10" stroke="#8aa6ff" stroke-width="1.4" fill="none" opacity=".55"/></svg>